# xmcd CD database file
#
# Track frame offsets:
#	150
#	15133
#	30058
#	41359
#	56169
#	73423
#	93302
#	108792
#	123123
#	140005
#	155266
#	174229
#	191461
#	208339
#	221975
#
# Disc length: 3416 seconds
#
# Revision: 1
# Processed by: cddbd v1.5.2PL0 Copyright (c) Steve Scherf et al.
# Submitted via: jetAudio 7
#
DISCID=c60d560f
DTITLE=Various Artist - 아주 특별한 영화음악(Cinema and New Age) CD2
DYEAR=2006
DGENRE=New Age
TTITLE0=Lascia Ch'io Pianga - David Agnew
TTITLE1=Local Hero - Phil Coulter
TTITLE2=Last Mohicans Main Theme - Los Dioses
TTITLE3=Speak softly Love - Silvard
TTITLE4=The First Time ever I saw Your Face - Phil Coulter
TTITLE5=Danny Boy - Aiofe
TTITLE6=Handel's Largo - David Agnew
TTITLE7=a Time for Us - Silvard
TTITLE8=Lady in Red - Phil Coulter
TTITLE9=Falling - Los Dioses
TTITLE10=Unchained Melody - Silvard
TTITLE11=Adagio in G minor - David Agnew
TTITLE12=Love Story Theme - Silvard
TTITLE13=Auld Lang Syne - Phil Coulter
TTITLE14=Mancini Magic(Live) - Phil Coulter
EXTD=YEAR: 2006
EXTT0=
EXTT1=
EXTT2=
EXTT3=
EXTT4=
EXTT5=
EXTT6=
EXTT7=
EXTT8=
EXTT9=
EXTT10=
EXTT11=
EXTT12=
EXTT13=
EXTT14=
PLAYORDER=
